<?xml version="1.0" encoding="utf-8"?>
<!-- Generator: Adobe Illustrator 27.5.0, SVG Export Plug-In . SVG Version: 6.00 Build 0)  -->
<svg version="1.1" xmlns="http://www.w3.org/2000/svg" xmlns:xlink="http://www.w3.org/1999/xlink" x="0px" y="0px"
	 viewBox="0 0 500 500" style="enable-background:new 0 0 500 500;" xml:space="preserve">
<g id="BACKGROUND">
</g>
<g id="ELEMENTS">
	<g>
		<g>
			<path style="fill:#E6E7E8;" d="M437.459,408.24c-1.891,1.945-1.846,5.084,0.099,6.975l0,0c1.945,1.891,5.084,1.846,6.975-0.099
				l5.563-5.723l-7.074-6.876L437.459,408.24z"/>
			<path style="fill:#EC6F74;" d="M450.096,409.394l5.563-5.723c1.891-1.945,1.846-5.084-0.099-6.975v0
				c-1.945-1.891-5.084-1.846-6.975,0.099l-5.563,5.723L450.096,409.394z"/>
		</g>
		
			<text transform="matrix(0.9 0 0 1 22.1154 298.4167)" style="fill:#EC2A32; font-family:'BuiltTitlingRg-BoldItalic'; font-size:131.9135px; letter-spacing:-4.444;">EMERGENCY</text>
		<g>
			<path style="fill:#D0D2D3;" d="M302.066,355.118h-46v-28.227c0-1.946,1.577-3.523,3.523-3.523h38.954
				c1.946,0,3.523,1.577,3.523,3.523V355.118z"/>
			<path style="fill:none;stroke:#404041;stroke-width:0.5669;stroke-miterlimit:10;" d="M260.535,343.993
				c-1.43,0-2.594-1.163-2.594-2.594v-13.063c0-1.431,1.164-2.594,2.594-2.594h22.688c1.43,0,2.594,1.163,2.594,2.594V341.4
				c0,1.431-1.164,2.594-2.594,2.594H260.535z"/>
			<path style="fill:#70CCEE;" d="M283.223,342.993h-22.688c-0.88,0-1.594-0.714-1.594-1.594v-13.063
				c0-0.88,0.714-1.594,1.594-1.594h22.688c0.88,0,1.594,0.714,1.594,1.594V341.4C284.816,342.28,284.103,342.993,283.223,342.993z"
				/>
			<rect x="289.816" y="347.118" style="fill:#EC2A32;" width="3.125" height="3.125"/>
			<rect x="294.379" y="347.118" style="fill:#8BC53F;" width="3.125" height="3.125"/>
			<circle style="fill:#6D6E70;" cx="264.629" cy="348.618" r="2.25"/>
			<circle style="fill:#808184;" cx="264.629" cy="348.618" r="1.25"/>
			<circle style="fill:#6D6E70;" cx="271.467" cy="348.618" r="2.25"/>
			<circle style="fill:#808184;" cx="271.467" cy="348.618" r="1.25"/>
			<circle style="fill:#6D6E70;" cx="278.348" cy="348.618" r="2.25"/>
			<circle style="fill:#808184;" cx="278.348" cy="348.618" r="1.25"/>
			<g>
				<polyline style="fill:none;stroke:#FFFFFF;stroke-width:0.5669;stroke-miterlimit:10;" points="259.812,336.118 
					262.312,336.118 264.062,332.493 267.062,339.556 268.65,330.243 270.124,336.118 272.15,336.118 				"/>
				<polyline style="fill:none;stroke:#FFFFFF;stroke-width:0.5669;stroke-miterlimit:10;" points="271.312,336.118 
					273.812,336.118 275.562,332.493 278.562,339.556 280.15,330.243 281.624,336.118 283.65,336.118 				"/>
			</g>
			
				<rect x="290.316" y="325.743" style="fill:none;stroke:#404041;stroke-width:0.5669;stroke-miterlimit:10;" width="7.188" height="18.25"/>
			
				<line style="fill:none;stroke:#404041;stroke-width:0.5669;stroke-miterlimit:10;" x1="256.066" y1="352.993" x2="302.066" y2="352.993"/>
		</g>
		<g>
			<g>
				<path style="fill:#D0D2D3;" d="M360.141,382.523h-58.847l-20.536-10.378c-1.552-0.784-2.174-2.678-1.39-4.23
					c0.784-1.55,2.679-2.174,4.23-1.39l19.196,9.702h57.347c1.739,0,3.148,1.409,3.148,3.148S361.88,382.523,360.141,382.523z"/>
				<path style="fill:none;stroke:#58595B;stroke-width:1.8867;stroke-miterlimit:10;" d="M318.487,383.54v-10.093
					c0-2.979,2.415-5.394,5.394-5.394h23.07c2.979,0,5.394,2.415,5.394,5.394v10.093"/>
				
					<line style="fill:none;stroke:#A6A8AB;stroke-width:2.126;stroke-miterlimit:10;" x1="307.203" y1="410.685" x2="337.044" y2="389.431"/>
				
					<line style="fill:none;stroke:#A6A8AB;stroke-width:2.126;stroke-miterlimit:10;" x1="337.044" y1="410.685" x2="307.203" y2="389.431"/>
				<g>
					<circle style="fill:#D0D2D3;stroke:#808184;stroke-width:1.3912;stroke-miterlimit:10;" cx="307.218" cy="420.612" r="3.3"/>
					<path style="fill:#404041;" d="M308.727,420.395l2.18-5.064h-7.394l2.18,5.064
						C306.267,421.726,308.154,421.726,308.727,420.395z"/>
				</g>
				<g>
					<path style="fill:#D0D2D3;stroke:#808184;stroke-width:1.3912;stroke-miterlimit:10;" d="M340.344,420.612
						c0,1.823-1.477,3.3-3.3,3.3c-1.823,0-3.3-1.478-3.3-3.3s1.478-3.3,3.3-3.3C338.867,417.312,340.344,418.789,340.344,420.612z"
						/>
					<path style="fill:#404041;" d="M338.553,420.395l2.18-5.064h-7.394l2.18,5.064C336.094,421.726,337.98,421.726,338.553,420.395
						z"/>
					<path style="fill:#404041;" d="M308.727,389.742l2.18-5.064h-7.394l2.18,5.064
						C306.267,391.073,308.154,391.073,308.727,389.742z"/>
					<path style="fill:#404041;" d="M338.553,389.742l2.18-5.064h-7.394l2.18,5.064C336.094,391.073,337.98,391.073,338.553,389.742
						z"/>
					<path style="fill:#404041;" d="M335.52,409.946l-2.18,5.064h7.394l-2.18-5.064C337.98,408.615,336.094,408.615,335.52,409.946z
						"/>
					<path style="fill:#404041;" d="M305.694,409.946l-2.18,5.064h7.394l-2.18-5.064
						C308.154,408.615,306.267,408.615,305.694,409.946z"/>
				</g>
				<rect x="282.179" y="382.152" style="fill:#6D6E70;" width="79.89" height="6.195"/>
				<rect x="302.045" y="410.775" style="fill:#6D6E70;" width="40.159" height="5.34"/>
				
					<line style="fill:none;stroke:#404041;stroke-width:0.5669;stroke-miterlimit:10;" x1="282.179" y1="384.216" x2="362.069" y2="384.216"/>
			</g>
			<polyline style="fill:none;stroke:#404041;stroke-width:0.5669;stroke-miterlimit:10;" points="280.758,369.265 302.045,379.516 
				360.141,379.516 			"/>
			
				<line style="fill:none;stroke:#404041;stroke-width:0.5669;stroke-miterlimit:10;" x1="302.045" y1="412.768" x2="342.203" y2="412.768"/>
		</g>
		<g>
			<g>
				<path style="fill:none;stroke:#58595B;stroke-width:1.7008;stroke-miterlimit:10;" d="M382.012,384.18v-7.96
					c0-3.43-2.781-6.211-6.211-6.211h-6.786"/>
				<path style="fill:#70CCEE;" d="M368.682,371.437h5.435v-2.81h-5.435c-0.562,0-1.018,0.456-1.018,1.018v0.774
					C367.664,370.981,368.12,371.437,368.682,371.437z"/>
				
					<line style="fill:none;stroke:#58595B;stroke-width:1.7008;stroke-miterlimit:10;" x1="411.341" y1="408.565" x2="403.671" y2="408.565"/>
				<path style="fill:#404041;" d="M403.98,404.628h10.466v-2.72c0-1.034-0.838-1.872-1.872-1.872h-8.594V404.628z"/>
				<path style="fill:#70CCEE;" d="M403.98,402.332h10.466V401.7c0-0.919-0.745-1.663-1.663-1.663h-8.803V402.332z"/>
				<path style="fill:none;stroke:#58595B;stroke-width:1.7008;stroke-miterlimit:10;" d="M406.97,408.565v-17.599
					c0-3.367-2.729-6.096-6.096-6.096h-12.767"/>
				<path style="fill:#70CCEE;" d="M385.578,384.18h16.907v-0.665c0-0.966-0.784-1.75-1.75-1.75h-15.157V384.18z"/>
				
					<line style="fill:none;stroke:#58595B;stroke-width:1.7008;stroke-miterlimit:10;" x1="411.595" y1="404.628" x2="411.595" y2="416.245"/>
			</g>
			<g>
				<path style="fill:#58595B;" d="M406.038,418.354c0,3.069,2.488,5.558,5.558,5.558c3.07,0,5.558-2.488,5.558-5.558
					s-2.488-5.558-5.558-5.558C408.526,412.797,406.038,415.285,406.038,418.354z"/>
				<path style="fill:none;stroke:#404041;stroke-miterlimit:10;" d="M408.523,418.354c0,1.697,1.376,3.073,3.073,3.073
					s3.073-1.376,3.073-3.073s-1.376-3.073-3.073-3.073S408.523,416.657,408.523,418.354z"/>
			</g>
			<g>
				
					<line style="fill:none;stroke:#BBBDBF;stroke-width:0.5669;stroke-miterlimit:10;" x1="384.197" y1="384.348" x2="384.197" y2="423.896"/>
				
					<line style="fill:none;stroke:#BBBDBF;stroke-width:0.5669;stroke-miterlimit:10;" x1="377.434" y1="385.54" x2="390.961" y2="422.704"/>
				
					<line style="fill:none;stroke:#BBBDBF;stroke-width:0.5669;stroke-miterlimit:10;" x1="371.487" y1="388.974" x2="396.908" y2="419.27"/>
				
					<line style="fill:none;stroke:#BBBDBF;stroke-width:0.5669;stroke-miterlimit:10;" x1="367.072" y1="394.235" x2="401.323" y2="414.009"/>
				
					<line style="fill:none;stroke:#BBBDBF;stroke-width:0.5669;stroke-miterlimit:10;" x1="364.723" y1="400.688" x2="403.671" y2="407.556"/>
				
					<line style="fill:none;stroke:#BBBDBF;stroke-width:0.5669;stroke-miterlimit:10;" x1="364.723" y1="407.556" x2="403.671" y2="400.688"/>
				
					<line style="fill:none;stroke:#BBBDBF;stroke-width:0.5669;stroke-miterlimit:10;" x1="367.072" y1="414.009" x2="401.323" y2="394.235"/>
				
					<line style="fill:none;stroke:#BBBDBF;stroke-width:0.5669;stroke-miterlimit:10;" x1="371.487" y1="419.27" x2="396.908" y2="388.974"/>
				
					<line style="fill:none;stroke:#BBBDBF;stroke-width:0.5669;stroke-miterlimit:10;" x1="377.434" y1="422.704" x2="390.961" y2="385.54"/>
				
					<ellipse transform="matrix(0.7071 -0.7071 0.7071 0.7071 -173.2341 390.0355)" style="fill:none;stroke:#A6A8AB;stroke-width:1.6217;stroke-miterlimit:10;" cx="384.197" cy="404.13" rx="18.862" ry="18.862"/>
				
					<ellipse transform="matrix(0.7071 -0.7071 0.7071 0.7071 -173.2341 390.0355)" style="fill:none;stroke:#404041;stroke-width:1.7008;stroke-miterlimit:10;" cx="384.197" cy="404.13" rx="19.782" ry="19.782"/>
				<path style="fill:#A6A8AB;" d="M378.907,404.13c0,2.922,2.369,5.291,5.291,5.291c2.922,0,5.291-2.369,5.291-5.291
					c0-2.922-2.369-5.291-5.291-5.291C381.275,398.839,378.907,401.208,378.907,404.13z"/>
				<circle style="fill:none;stroke:#404041;stroke-miterlimit:10;" cx="384.197" cy="404.13" r="3.335"/>
			</g>
		</g>
		<g>
			<path style="fill:#EC2A32;" d="M61.904,398.328l21.502-37.314c2.262-3.926,7.926-3.931,10.195-0.009l21.563,37.278
				c2.269,3.922-0.559,8.829-5.09,8.833l-43.066,0.035C62.478,407.157,59.642,402.254,61.904,398.328z"/>
			
				<path style="fill:none;stroke:#404041;stroke-width:0.5669;stroke-linecap:round;stroke-linejoin:round;stroke-miterlimit:10;" d="
				M67.898,403.622c-1.496,0.001-2.237-1.002-2.487-1.433c-0.249-0.432-0.749-1.574-0.002-2.871L86.02,363.55
				c0.747-1.295,1.987-1.436,2.485-1.436s1.738,0.138,2.487,1.432l20.67,35.734c0.748,1.295,0.251,2.439,0.002,2.871
				c-0.25,0.432-0.989,1.436-2.485,1.437L67.898,403.622z"/>
			<path style="fill:#FFFFFF;" d="M88.993,393.962l-0.924,0.001c-1.326,0.001-2.414-1.049-2.46-2.375l-0.63-18.323
				c-0.048-1.39,1.065-2.543,2.456-2.544l2.155-0.002c1.39-0.001,2.505,1.15,2.46,2.54l-0.6,18.324
				C91.406,392.909,90.319,393.961,88.993,393.962z"/>
			<path style="fill:#FFFFFF;" d="M88.805,400.567l-0.538,0c-1.326,0.001-2.414-1.049-2.46-2.375l0,0
				c-0.048-1.39,1.065-2.542,2.456-2.544l0.538,0c1.39-0.001,2.505,1.15,2.46,2.54l0,0
				C91.218,399.514,90.132,400.566,88.805,400.567z"/>
		</g>
		<g>
			
				<path style="fill:none;stroke:#404041;stroke-width:0.5669;stroke-linecap:round;stroke-linejoin:round;stroke-miterlimit:10;" d="
				M388.715,371.088h4.266c0.191,0,0.37-0.093,0.478-0.25l0.885-1.275c0.235-0.338,0.737-0.333,0.964,0.011l0.829,1.253
				c0.108,0.163,0.29,0.261,0.486,0.261h2.637l1.444,4.65c0.101,0.326,0.577,0.273,0.605-0.066l1.492-18.173l1.742,16.095
				c0.032,0.298,0.427,0.381,0.577,0.122l1.517-2.626h3.446c0.222,0,0.43-0.106,0.56-0.286l1.944-2.684
				c0.268-0.37,0.815-0.383,1.1-0.026l2.183,2.736c0.131,0.164,0.33,0.26,0.54,0.26h2.986"/>
			
				<path style="fill:none;stroke:#404041;stroke-width:0.5669;stroke-linecap:round;stroke-linejoin:round;stroke-miterlimit:10;" d="
				M419.396,371.088h4.266c0.191,0,0.369-0.093,0.478-0.25l0.885-1.275c0.235-0.338,0.737-0.333,0.964,0.011l0.829,1.253
				c0.108,0.163,0.29,0.261,0.486,0.261h2.637l1.443,4.65c0.101,0.326,0.577,0.273,0.605-0.066l1.492-18.173l1.742,16.095
				c0.032,0.298,0.427,0.381,0.577,0.122l1.517-2.626h3.446c0.222,0,0.43-0.106,0.56-0.286l1.944-2.684
				c0.268-0.37,0.815-0.383,1.1-0.026l2.183,2.736c0.131,0.164,0.33,0.26,0.54,0.26h2.986"/>
			
				<path style="fill:none;stroke:#404041;stroke-width:0.5669;stroke-linecap:round;stroke-linejoin:round;stroke-miterlimit:10;" d="
				M450.076,371.088h4.266c0.191,0,0.369-0.093,0.478-0.25l0.885-1.275c0.235-0.338,0.737-0.333,0.964,0.011l0.829,1.253
				c0.108,0.163,0.29,0.261,0.486,0.261h2.637l1.444,4.65c0.101,0.326,0.577,0.273,0.605-0.066l1.492-18.173l1.742,16.095
				c0.032,0.298,0.427,0.381,0.577,0.122l1.517-2.626h3.446c0.222,0,0.43-0.106,0.56-0.286l1.944-2.684
				c0.268-0.37,0.815-0.383,1.1-0.026l2.183,2.736c0.131,0.164,0.33,0.26,0.54,0.26h2.986"/>
		</g>
		<g>
			<rect x="127.262" y="397.202" style="fill:#353536;" width="141.345" height="15.882"/>
			<path style="fill:#EC2A32;" d="M237.126,346.261h-9.194v-6.942c0-1.244,1.008-2.252,2.252-2.252h4.69
				c1.244,0,2.252,1.008,2.252,2.252V346.261z"/>
			<rect x="225.517" y="344.946" style="fill:#808184;" width="14.196" height="5.912"/>
			<rect x="121.56" y="398.646" style="fill:#EC2A32;" width="4.211" height="4.211"/>
			<rect x="271.855" y="398.646" style="fill:#EC2A32;" width="4.211" height="4.211"/>
			<path style="fill:#E6E7E8;" d="M239.17,346.67H128.948c-3.548,0-6.425,2.877-6.425,6.425v59.989h8.303
				c-0.078-0.597-0.182-1.186-0.182-1.805c0-7.675,6.222-13.896,13.896-13.896c7.675,0,13.896,6.222,13.896,13.896
				c0,0.618-0.104,1.208-0.182,1.805h77.849c-0.078-0.597-0.182-1.186-0.182-1.805c0-7.675,6.222-13.896,13.896-13.896
				c7.675,0,13.896,6.222,13.896,13.896c0,0.618-0.104,1.208-0.182,1.805h11.751v-16.563c0-4.937-1.49-9.76-4.275-13.837
				l-26.534-33.213C243.278,347.718,241.293,346.67,239.17,346.67z"/>
			<polygon style="fill:#EC2A32;" points="274.767,391.556 122.523,391.556 122.523,389.983 274.383,389.983 			"/>
			
				<path style="fill:none;stroke:#404041;stroke-width:0.5669;stroke-linecap:round;stroke-linejoin:round;stroke-miterlimit:10;" d="
				M247.36,356.676l13.772,16.283c1.602,2.341-0.075,5.519-2.911,5.519h-9.276c-1.948,0-3.527-1.579-3.527-3.527v-17.674
				C245.416,356.231,246.769,355.813,247.36,356.676z"/>
			<path style="fill:#70CCEE;" d="M248.944,377.196c-1.238,0-2.245-1.007-2.245-2.245V357.88l13.408,15.852
				c0.448,0.691,0.486,1.534,0.1,2.266c-0.396,0.75-1.138,1.198-1.986,1.198H248.944z"/>
			
				<ellipse transform="matrix(0.9226 -0.3856 0.3856 0.9226 -147.4283 87.556)" style="fill:#58595B;" cx="144.541" cy="411.279" rx="12.633" ry="12.633"/>
			
				<ellipse transform="matrix(0.9288 -0.3706 0.3706 0.9288 -134.6344 121.8735)" style="fill:#58595B;" cx="249.819" cy="411.279" rx="12.633" ry="12.633"/>
			<circle style="fill:#929497;" cx="144.541" cy="411.279" r="7.46"/>
			<circle style="fill:#929497;" cx="249.819" cy="411.279" r="7.46"/>
			<circle style="fill:#A6A8AB;" cx="144.541" cy="411.279" r="4.405"/>
			<circle style="fill:#A6A8AB;" cx="249.819" cy="411.279" r="4.405"/>
			
				<path style="fill:none;stroke:#404041;stroke-width:0.5669;stroke-linecap:round;stroke-linejoin:round;stroke-miterlimit:10;" d="
				M241.65,378.479h-14.294c-1.124,0-2.035-0.911-2.035-2.035v-18.895c0-1.343,1.088-2.431,2.431-2.431h13.502
				c1.343,0,2.431,1.088,2.431,2.431v18.895C243.685,377.568,242.774,378.479,241.65,378.479z"/>
			<path style="fill:#70CCEE;" d="M226.603,376.161v-18.33c0-0.79,0.641-1.431,1.431-1.431h12.938c0.79,0,1.431,0.641,1.431,1.431
				v18.33c0,0.572-0.463,1.035-1.035,1.035h-13.73C227.069,377.196,226.603,376.73,226.603,376.161z"/>
			
				<path style="fill:none;stroke:#404041;stroke-width:0.5669;stroke-linecap:round;stroke-linejoin:round;stroke-miterlimit:10;" d="
				M189.507,378.479h-9.165c-1.124,0-2.035-0.911-2.035-2.035v-18.895c0-1.343,1.088-2.431,2.431-2.431h8.373
				c1.343,0,2.431,1.088,2.431,2.431v18.895C191.542,377.568,190.631,378.479,189.507,378.479z"/>
			<path style="fill:#70CCEE;" d="M179.59,376.161v-18.33c0-0.79,0.64-1.431,1.431-1.431h7.808c0.79,0,1.431,0.641,1.431,1.431
				v18.33c0,0.572-0.463,1.035-1.035,1.035h-8.6C180.056,377.196,179.59,376.73,179.59,376.161z"/>
			
				<path style="fill:none;stroke:#404041;stroke-width:0.5669;stroke-linecap:round;stroke-linejoin:round;stroke-miterlimit:10;" d="
				M208.636,378.479h-9.165c-1.124,0-2.035-0.911-2.035-2.035v-18.895c0-1.343,1.088-2.431,2.431-2.431h8.373
				c1.342,0,2.431,1.088,2.431,2.431v18.895C210.671,377.568,209.76,378.479,208.636,378.479z"/>
			<path style="fill:#70CCEE;" d="M198.719,376.162v-18.331c0-0.79,0.641-1.431,1.431-1.431h7.808c0.79,0,1.431,0.641,1.431,1.431
				v18.33c0,0.569-0.466,1.035-1.035,1.035h-8.601C199.182,377.196,198.719,376.733,198.719,376.162z"/>
			<rect x="144.09" y="359.435" style="fill:#EC2A32;" width="8.723" height="26.927"/>
			
				<rect x="144.09" y="359.435" transform="matrix(-1.836970e-16 1 -1 -1.836970e-16 521.35 224.4473)" style="fill:#EC2A32;" width="8.723" height="26.927"/>
			<path style="fill:#EC2A32;" d="M122.523,392.871v20.213h8.303c-0.078-0.597-0.182-1.186-0.182-1.805
				c0-7.675,6.222-13.896,13.896-13.896c7.675,0,13.896,6.221,13.896,13.896c0,0.618-0.104,1.208-0.182,1.805h77.849
				c-0.078-0.597-0.182-1.186-0.182-1.805c0-7.675,6.222-13.896,13.896-13.896c7.675,0,13.896,6.221,13.896,13.896
				c0,0.618-0.104,1.208-0.182,1.805h11.751v-16.563c0-1.227-0.093-2.447-0.274-3.65H122.523z"/>
			
				<line style="fill:none;stroke:#404041;stroke-width:0.5669;stroke-linecap:round;stroke-linejoin:round;stroke-miterlimit:10;" x1="122.523" y1="395.759" x2="275.284" y2="395.759"/>
			<path style="fill:#D0D2D3;" d="M122.523,405.384v7.7h8.303c-0.078-0.597-0.182-1.186-0.182-1.805c0-2.116,0.51-4.1,1.356-5.896
				H122.523z M262.359,405.384c0.846,1.795,1.356,3.779,1.356,5.896c0,0.618-0.104,1.208-0.182,1.805h11.751v-7.7H262.359z
				 M157.081,405.384c0.846,1.795,1.356,3.779,1.356,5.896c0,0.618-0.104,1.208-0.182,1.805h77.849
				c-0.078-0.597-0.182-1.186-0.182-1.805c0-2.116,0.51-4.1,1.356-5.896H157.081z"/>
			
				<line style="fill:none;stroke:#404041;stroke-width:0.5669;stroke-linecap:round;stroke-linejoin:round;stroke-miterlimit:10;" x1="222.131" y1="346.67" x2="222.131" y2="405.384"/>
			<path style="fill:#EC2A32;" d="M251.359,387.457h-4.538v-15.701h4.538c0.445,0,0.806,0.361,0.806,0.806v14.09
				C252.165,387.096,251.804,387.457,251.359,387.457z"/>
			
				<line style="fill:none;stroke:#404041;stroke-width:0.5669;stroke-linecap:round;stroke-linejoin:round;stroke-miterlimit:10;" x1="248.556" y1="371.884" x2="248.556" y2="387.328"/>
			
				<line style="fill:none;stroke:#404041;stroke-width:0.5669;stroke-linecap:round;stroke-linejoin:round;stroke-miterlimit:10;" x1="122.523" y1="353.095" x2="247.371" y2="353.095"/>
			
				<line style="fill:none;stroke:#404041;stroke-width:0.5669;stroke-linecap:round;stroke-linejoin:round;stroke-miterlimit:10;" x1="125.771" y1="353.095" x2="125.771" y2="392.871"/>
			
				<line style="fill:none;stroke:#404041;stroke-width:0.5669;stroke-linecap:round;stroke-linejoin:round;stroke-miterlimit:10;" x1="174.737" y1="353.095" x2="174.737" y2="405.384"/>
			
				<line style="fill:none;stroke:#404041;stroke-width:0.5669;stroke-linecap:round;stroke-linejoin:round;stroke-miterlimit:10;" x1="214.803" y1="353.095" x2="214.803" y2="405.384"/>
		</g>
		<path style="fill:#EC2A32;" d="M207.5,142.827l0.625-0.866c2.133-2.954,1.467-7.077-1.486-9.209l0,0
			c-2.954-2.133-7.077-1.467-9.209,1.486l-0.625,0.866l-0.866-0.625c-2.954-2.133-7.077-1.467-9.209,1.486v0
			c-2.133,2.954-1.467,7.077,1.486,9.209l0.866,0.625l10.696,7.723L207.5,142.827z"/>
		<path style="fill:#EC2A32;" d="M464.612,353.355l1.015-0.333c3.461-1.136,5.346-4.864,4.209-8.325l0,0
			c-1.137-3.461-4.864-5.346-8.325-4.209l-1.015,0.333l-0.333-1.015c-1.136-3.461-4.864-5.346-8.325-4.209l0,0
			c-3.461,1.137-5.346,4.864-4.209,8.325l0.333,1.015l4.116,12.534L464.612,353.355z"/>
		<path style="fill:#EC2A32;" d="M176.018,60.756l0.343-1.011c1.17-3.45-0.678-7.195-4.128-8.366l0,0
			c-3.45-1.17-7.195,0.678-8.366,4.128l-0.343,1.011l-1.011-0.343c-3.45-1.17-7.195,0.678-8.366,4.128l0,0
			c-1.17,3.45,0.678,7.195,4.128,8.366l1.011,0.343l12.493,4.238L176.018,60.756z"/>
		<g>
			<path style="fill:#D0D2D3;" d="M202.649,102.798l-13.036-4.576c-0.937-0.329-1.964,0.164-2.293,1.101v0
				c-0.329,0.937,0.164,1.964,1.101,2.293l13.036,4.576c3.805,1.335,7.244,3.544,10.042,6.448l0,0
				c2.798,2.904,6.237,5.112,10.042,6.448l26.085,9.156c3.812,1.338,7.987-0.668,9.325-4.479v0c1.338-3.812-0.668-7.987-4.479-9.325
				l-26.085-9.156c-3.805-1.336-7.87-1.761-11.869-1.243l0,0C210.519,104.559,206.454,104.133,202.649,102.798z"/>
			<path style="fill:#929497;" d="M194.951,100.095l-5.338-1.874c-0.937-0.329-1.964,0.164-2.293,1.101v0
				c-0.329,0.937,0.164,1.964,1.101,2.293l5.338,1.874"/>
			<path style="fill:#404041;" d="M245.477,127.489l2.15,0.755c3.812,1.338,7.987-0.668,9.325-4.479
				c1.338-3.812-0.668-7.987-4.479-9.325l-2.15-0.755L245.477,127.489z"/>
			
				<rect x="236.372" y="109.774" transform="matrix(0.3312 -0.9436 0.9436 0.3312 49.055 304.2251)" style="fill:#929497;" width="5.516" height="15.469"/>
			<path style="fill:#37B34A;" d="M229.226,111.872c1.062,0.373,1.621,1.536,1.248,2.599c-0.373,1.062-1.536,1.621-2.599,1.248
				c-1.062-0.373-1.621-1.536-1.248-2.599C227,112.058,228.164,111.499,229.226,111.872z"/>
			<path style="fill:#EC2A32;" d="M223.456,109.846c1.062,0.373,1.621,1.536,1.248,2.599c-0.373,1.062-1.536,1.621-2.599,1.248
				c-1.062-0.373-1.621-1.536-1.248-2.599C221.23,110.032,222.393,109.474,223.456,109.846z"/>
		</g>
		<g>
			<path style="fill:none;stroke:#E6E7E8;stroke-width:0.5669;stroke-miterlimit:10;" d="M96.979,131.755
				c0,4.763,1.153,28.529-21.404,28.529"/>
			<path style="fill:none;stroke:#929497;stroke-width:2.2677;stroke-miterlimit:10;" d="M96.963,116.536v-2.193
				c0-1.028,0.834-1.862,1.862-1.862h12.765"/>
			<path style="fill:#E6E7E8;" d="M97.545,119.986h-1.132c-0.388,0-0.705-0.317-0.705-0.705v-2.805c0-0.388,0.317-0.705,0.705-0.705
				h1.132c0.388,0,0.705,0.317,0.705,0.705v2.805C98.251,119.669,97.933,119.986,97.545,119.986z"/>
			<path style="fill:#E6E7E8;" d="M97.545,132.296h-1.132c-0.388,0-0.705-0.317-0.705-0.705v-2.805c0-0.388,0.317-0.705,0.705-0.705
				h1.132c0.388,0,0.705,0.317,0.705,0.705v2.805C98.251,131.978,97.933,132.296,97.545,132.296z"/>
			<path style="fill:#E6E7E8;" d="M98.775,131.089h-3.624c-1.242,0-2.259-1.017-2.259-2.259v-8.773c0-1.242,1.016-2.259,2.259-2.259
				h3.624c1.242,0,2.259,1.017,2.259,2.259v8.773C101.034,130.072,100.018,131.089,98.775,131.089z"/>
			<path style="fill:#E6E7E8;" d="M98.775,131.089h-3.624c-1.242,0-2.259-1.017-2.259-2.259v-8.773c0-1.242,1.016-2.259,2.259-2.259
				h3.624c1.242,0,2.259,1.017,2.259,2.259v8.773C101.034,130.072,100.018,131.089,98.775,131.089z"/>
			<path style="fill:#70CCEE;" d="M96.963,130.188c-1.748,0-3.17-1.422-3.17-3.17v-5.15c0-1.748,1.422-3.17,3.17-3.17
				c1.749,0,3.171,1.422,3.171,3.17v5.15C100.134,128.766,98.712,130.188,96.963,130.188z"/>
			
				<line style="fill:none;stroke:#929497;stroke-width:2.2677;stroke-miterlimit:10;" x1="111.59" y1="109.238" x2="111.59" y2="190.561"/>
			<g>
				<path style="fill:#E6E7E8;" d="M91.195,160.104H69.929c-0.98,0-1.781-0.801-1.781-1.781v-2.858c0-0.98,0.802-1.781,1.781-1.781
					h21.266c0.98,0,1.781,0.802,1.781,1.781v2.858C92.976,159.302,92.175,160.104,91.195,160.104z"/>
				<path style="fill:#D0D2D3;" d="M167.71,167.883H68.149c-1.039,0-1.882-0.842-1.882-1.882v-5.098
					c0-1.039,0.842-1.882,1.882-1.882h99.562c1.039,0,1.882,0.842,1.882,1.882v5.098C169.592,167.041,168.75,167.883,167.71,167.883
					z"/>
				<path style="fill:#BBBDBF;" d="M90.274,157.896H70.449c-0.309,0-0.563-0.253-0.563-0.563v-0.902
					c0-0.309,0.253-0.563,0.563-0.563h19.825c0.309,0,0.563,0.253,0.563,0.563v0.902C90.836,157.643,90.583,157.896,90.274,157.896z
					"/>
			</g>
			
				<line style="fill:none;stroke:#5B8FA3;stroke-width:2.126;stroke-miterlimit:10;" x1="72.124" y1="174.228" x2="163.735" y2="174.228"/>
			
				<line style="fill:none;stroke:#68A3BA;stroke-width:2.8347;stroke-miterlimit:10;" x1="71.862" y1="186.656" x2="163.998" y2="186.656"/>
			<g>
				<g>
					<path style="fill:none;stroke:#58595B;stroke-width:1.9842;stroke-miterlimit:10;" d="M163.998,186.656"/>
					<path style="fill:none;stroke:#58595B;stroke-width:1.9842;stroke-miterlimit:10;" d="M71.862,186.656"/>
					<path style="fill:none;stroke:#58595B;stroke-width:1.9842;stroke-miterlimit:10;" d="M163.998,186.656"/>
					
						<line style="fill:none;stroke:#68A3BA;stroke-width:2.8347;stroke-miterlimit:10;" x1="71.862" y1="166.532" x2="71.862" y2="186.656"/>
					<path style="fill:#BBBDBF;" d="M77.719,187.97c0,3.235-2.622,5.857-5.857,5.857c-3.235,0-5.857-2.622-5.857-5.857
						c0-3.235,2.622-5.857,5.857-5.857C75.096,182.113,77.719,184.735,77.719,187.97z"/>
					<path style="fill:#808184;" d="M75.576,187.97c0,2.051-1.663,3.714-3.714,3.714c-2.051,0-3.714-1.663-3.714-3.714
						s1.663-3.714,3.714-3.714C73.913,184.256,75.576,185.919,75.576,187.97z"/>
				</g>
				<g>
					
						<line style="fill:none;stroke:#68A3BA;stroke-width:2.8347;stroke-miterlimit:10;" x1="163.998" y1="166.532" x2="163.998" y2="186.656"/>
					<path style="fill:#BBBDBF;" d="M169.855,187.97c0,3.235-2.622,5.857-5.857,5.857c-3.235,0-5.857-2.622-5.857-5.857
						c0-3.235,2.622-5.857,5.857-5.857C167.232,182.113,169.855,184.735,169.855,187.97z"/>
					<path style="fill:#808184;" d="M167.712,187.97c0,2.051-1.663,3.714-3.714,3.714s-3.714-1.663-3.714-3.714
						s1.663-3.714,3.714-3.714S167.712,185.919,167.712,187.97z"/>
				</g>
			</g>
			
				<line style="fill:none;stroke:#68A3BA;stroke-width:2.126;stroke-miterlimit:10;" x1="117.93" y1="169.813" x2="117.93" y2="186.295"/>
			<rect x="61.462" y="165.03" style="fill:#A6A8AB;" width="112.936" height="5.707"/>
			<g>
				
					<line style="fill:none;stroke:#58595B;stroke-width:0.5669;stroke-miterlimit:10;" x1="99.345" y1="165.03" x2="99.345" y2="170.737"/>
				
					<line style="fill:none;stroke:#58595B;stroke-width:0.5669;stroke-miterlimit:10;" x1="136.515" y1="165.03" x2="136.515" y2="170.737"/>
			</g>
			
				<line style="fill:none;stroke:#58595B;stroke-width:0.5669;stroke-miterlimit:10;" x1="66.267" y1="163.453" x2="169.592" y2="163.453"/>
			<path style="fill:none;stroke:#58595B;stroke-width:1.4173;stroke-miterlimit:10;" d="M89.714,165.03v-11.81
				c0-3.638,2.949-6.587,6.587-6.587h43.257c3.638,0,6.587,2.949,6.587,6.587v11.81"/>
			<g>
				
					<line style="fill:none;stroke:#58595B;stroke-width:1.4173;stroke-miterlimit:10;" x1="106.441" y1="146.633" x2="106.441" y2="165.03"/>
				
					<line style="fill:none;stroke:#58595B;stroke-width:1.4173;stroke-miterlimit:10;" x1="129.419" y1="146.633" x2="129.419" y2="165.03"/>
			</g>
			<rect x="110.351" y="110.927" style="fill:#6D6E70;" width="2.253" height="3.582"/>
			<path style="fill:none;stroke:#6D6E70;stroke-width:2.8347;stroke-miterlimit:10;" d="M100.134,193.827L100.134,193.827
				c0-1.928,1.563-3.492,3.492-3.492h16.638c1.928,0,3.492,1.563,3.492,3.492l0,0"/>
		</g>
		<g>
			<ellipse style="fill:#ECAAAD;" cx="61.848" cy="115.261" rx="28.912" ry="20.775"/>
			<path style="fill:#ECAAAD;" d="M70.759,131.052c0,0-0.339,13.177,13.326,17.105c-22.817,0-20.686-17.105-20.686-17.105"/>
			
				<text transform="matrix(0.9 0 0 1 44.2686 126.5273)" style="fill:#FFFFFF; font-family:'BuiltTitlingRg-BoldItalic'; font-size:29.9903px;">SOS</text>
		</g>
		<g>
			<g>
				<g>
					<path style="fill:#6D6E70;" d="M300.779,52.832v3.089l-61.77-5.81c0,0-9.736-1.794-12.599-5.071
						C241.36,46.841,300.779,52.832,300.779,52.832z"/>
					
						<line style="fill:none;stroke:#808184;stroke-width:1.4173;stroke-miterlimit:10;" x1="309.266" y1="54.194" x2="230.991" y2="46.301"/>
				</g>
				<g>
					<path style="fill:#6D6E70;" d="M301.764,54.543v3.089l-54.6,6.644c0,0-8.605,0.169-11.137-2.531
						C249.243,60.531,301.764,54.543,301.764,54.543z"/>
					
						<line style="fill:none;stroke:#808184;stroke-width:1.4173;stroke-miterlimit:10;" x1="309.266" y1="54.194" x2="240.077" y2="62.083"/>
				</g>
				<g>
					<path style="fill:#6D6E70;" d="M316.829,52.832v3.089l61.77-5.81c0,0,9.736-1.794,12.599-5.071
						C376.248,46.841,316.829,52.832,316.829,52.832z"/>
					
						<line style="fill:none;stroke:#808184;stroke-width:1.4173;stroke-miterlimit:10;" x1="308.342" y1="54.194" x2="386.617" y2="46.301"/>
				</g>
				<g>
					<path style="fill:#6D6E70;" d="M315.844,54.543v3.089l54.6,6.644c0,0,8.606,0.169,11.137-2.531
						C368.365,60.531,315.844,54.543,315.844,54.543z"/>
					
						<line style="fill:none;stroke:#808184;stroke-width:1.4173;stroke-miterlimit:10;" x1="308.342" y1="54.194" x2="377.531" y2="62.083"/>
				</g>
			</g>
			<rect x="307.781" y="52.633" style="fill:#A6A8AB;" width="2.046" height="9.449"/>
			<rect x="306.779" y="52.043" style="fill:#D0D2D3;" width="4.05" height="4.303"/>
			<rect x="307.781" y="50.355" style="fill:#808184;" width="2.046" height="1.687"/>
			<path style="fill:#404041;" d="M286.596,123.053c0,2.499-2.026,4.524-4.524,4.524c-2.499,0-4.524-2.026-4.524-4.524
				s2.026-4.524,4.524-4.524C284.57,118.529,286.596,120.554,286.596,123.053z"/>
			<polygon style="fill:#A6A8AB;" points="282.419,114.416 281.407,121.376 283.305,121.376 284.95,114.416 			"/>
			<path style="fill:#404041;" d="M367.619,123.053c0,2.499-2.025,4.524-4.524,4.524c-2.499,0-4.524-2.026-4.524-4.524
				s2.026-4.524,4.524-4.524C365.594,118.529,367.619,120.554,367.619,123.053z"/>
			<circle style="fill:#BBBDBF;" cx="363.095" cy="123.053" r="2.361"/>
			<polygon style="fill:#BBBDBF;" points="364.456,111.48 365.456,117.074 362.557,123.053 367.619,117.896 367.885,111.48 			"/>
			<path style="fill:#EC2A32;" d="M186.727,81.728l97.373,30.115c1.663,0.515,3.394,0.776,5.134,0.776h74.981
				c0,0,22.273,2.025,22.273-6.075c0-8.099-20.501-11.896-20.501-11.896l-6.571-5.726c-7.296-6.358-12.581-10.627-22.102-12.358
				l-7.727-1.405l-5.307-9.826c-2.085-2.302-4.983-3.704-8.082-3.911l-10.561-0.704c-4.527-0.302-8.836,1.98-11.131,5.894
				l-0.559,0.953l-76.062,4.545c-3.271-0.387-6.214-2.172-8.068-4.894l-10.182-15.546c-0.754-1.106-2.006-1.768-3.344-1.768h-3.325
				c-2.779,0-4.731,2.736-3.827,5.364l4.549,20.887l-6.387,0.483C184.431,76.854,183.978,80.877,186.727,81.728z"/>
			<path style="fill:#D0D2D3;" d="M279.521,106.545l1,5.856c0,1.951,1.582,3.533,3.533,3.533l0,0c0.975,0,1.908-0.403,2.575-1.114
				l5.8-5.238L279.521,106.545z"/>
			<path style="fill:#BBBDBF;" d="M307.742,109.076"/>
			<circle style="fill:#BBBDBF;" cx="282.071" cy="123.053" r="2.361"/>
			<path style="fill:#E6E7E8;" d="M305.511,100.295c-8.483-0.707-16.496-4.192-22.798-9.916c-3.986-3.621-9.108-5.74-14.487-5.995
				l-21.291-1.009c-3.149-0.149-4.987,3.501-2.992,5.942l11.047,13.517l29.109,9.009c1.663,0.515,3.394,0.776,5.134,0.776h74.981
				c0,0,20.186,1.829,22.112-4.991L305.511,100.295z"/>
			<path style="fill:none;stroke:#404041;stroke-width:0.5669;stroke-miterlimit:10;" d="M278.129,94.702v-5.423
				c0-2.439,1.977-4.417,4.417-4.417h8.842c2.439,0,4.417,1.978,4.417,4.417v5.423c0,2.439-1.977,4.417-4.417,4.417h-8.842
				C280.106,99.118,278.129,97.141,278.129,94.702z"/>
			<path style="fill:#70CCEE;" d="M291.375,98.106h-8.817c-1.887,0-3.417-1.53-3.417-3.417v-5.398c0-1.887,1.53-3.417,3.417-3.417
				h8.817c1.887,0,3.417,1.53,3.417,3.417v5.398C294.792,96.576,293.262,98.106,291.375,98.106z"/>
			<path style="fill:none;stroke:#404041;stroke-width:0.5669;stroke-miterlimit:10;" d="M300.851,96.138v-8.296
				c0-1.646,1.334-2.98,2.98-2.98h13.885c1.646,0,2.98,1.334,2.98,2.98v8.296c0,1.646-1.334,2.98-2.98,2.98h-13.885
				C302.185,99.118,300.851,97.784,300.851,96.138z"/>
			<path style="fill:#70CCEE;" d="M317.704,98.106h-13.86c-1.094,0-1.98-0.887-1.98-1.98v-8.271c0-1.094,0.886-1.98,1.98-1.98h13.86
				c1.094,0,1.98,0.887,1.98,1.98v8.271C319.684,97.219,318.797,98.106,317.704,98.106z"/>
			<path style="fill:none;stroke:#404041;stroke-width:0.5669;stroke-miterlimit:10;" d="M320.295,110.173h-19.043
				c-1.611,0-2.917-1.306-2.917-2.917v-20.97c0-1.611,1.306-2.917,2.917-2.917h19.043c1.611,0,2.917,1.306,2.917,2.917v20.97
				C323.212,108.867,321.906,110.173,320.295,110.173z"/>
			<path style="fill:none;stroke:#404041;stroke-width:0.5669;stroke-miterlimit:10;" d="M329.877,111.185
				c-2.186,0-3.966-1.779-3.966-3.966V86.323c0-2.187,1.779-3.965,3.966-3.965h5.13c1.639,0,3.13,1.03,3.71,2.564l7.894,20.898
				c0.46,1.218,0.293,2.584-0.448,3.656c-0.74,1.071-1.96,1.711-3.262,1.711H329.877z"/>
			<path style="fill:none;stroke:#404041;stroke-width:0.5669;stroke-miterlimit:10;" d="M330.36,99.136
				c-1.119,0-2.029-0.91-2.029-2.029v-9.969c0-1.119,0.91-2.029,2.029-2.029h4.022c0.873,0,1.647,0.556,1.924,1.385l3.338,9.969
				c0.207,0.617,0.103,1.301-0.277,1.829c-0.38,0.528-0.996,0.844-1.647,0.844H330.36z"/>
			<path style="fill:#70CCEE;" d="M337.72,98.239h-7.36c-0.625,0-1.131-0.506-1.131-1.131v-9.969c0-0.625,0.507-1.131,1.131-1.131
				h4.022c0.486,0,0.918,0.311,1.073,0.772l3.338,9.969C339.038,97.481,338.493,98.239,337.72,98.239z"/>
			<path style="fill:none;stroke:#404041;stroke-width:0.5669;stroke-miterlimit:10;" d="M367.023,94.941l-12.462,7.101
				c-0.641,0.358-1.366,0.548-2.098,0.548h0c-1.541,0-2.974-0.83-3.739-2.166l-7.04-12.293c-0.641-1.119-0.748-2.453-0.294-3.66
				c0.454-1.205,1.412-2.135,2.629-2.552c0.907-0.311,3.52-0.917,4.523-1.249"/>
			<path style="fill:#70CCEE;" d="M349.943,81.517c-1.38,0.447-4.338,0.928-5.596,1.359c-1.955,0.67-2.813,2.957-1.786,4.751
				l7.041,12.293c0.897,1.566,2.888,2.119,4.464,1.238l11.814-6.602C365.881,94.557,353.883,83.516,349.943,81.517z"/>
			<rect x="261.888" y="87.393" style="fill:#EC2A32;" width="4.725" height="14.184"/>
			
				<rect x="261.888" y="87.393" transform="matrix(-1.836970e-16 1 -1 -1.836970e-16 358.7357 -169.765)" style="fill:#EC2A32;" width="4.725" height="14.184"/>
			<path style="fill:none;stroke:#404041;stroke-width:0.5669;stroke-miterlimit:10;" d="M293.948,67.567
				c2.516,2.072,5.814,4.305,9.955,6.075c12.596,5.382,20.889,2.843,25.684,1.519"/>
			<g>
				<g>
					
						<rect x="186.051" y="59.667" transform="matrix(0.7071 0.7071 -0.7071 0.7071 99.1716 -118.6431)" style="fill:#58595B;" width="13.499" height="1.444"/>
					<path style="fill:#6D6E70;" d="M194.199,62.809l-11.693-11.693l0.025-0.025c1.114-1.114,2.92-1.114,4.033,0l9.676,9.676
						L194.199,62.809z"/>
					
						<rect x="196.188" y="69.767" transform="matrix(-0.7071 -0.7071 0.7071 -0.7071 296.5935 263.8311)" style="fill:#58595B;" width="13.499" height="1.444"/>
					<path style="fill:#6D6E70;" d="M201.539,68.07l11.693,11.693l-0.025,0.025c-1.114,1.114-2.92,1.114-4.033,0l-9.676-9.676
						L201.539,68.07z"/>
				</g>
				<g>
					
						<rect x="196.17" y="59.649" transform="matrix(-0.7071 0.7071 -0.7071 -0.7071 389.0932 -40.4267)" style="fill:#58595B;" width="13.499" height="1.444"/>
					<path style="fill:#6D6E70;" d="M200.5,61.769l11.693-11.693l0.025,0.025c1.114,1.114,1.114,2.92,0,4.033l-9.676,9.676
						L200.5,61.769z"/>
					
						<rect x="186.07" y="69.786" transform="matrix(0.7071 -0.7071 0.7071 0.7071 6.6185 156.9941)" style="fill:#58595B;" width="13.499" height="1.444"/>
					<path style="fill:#6D6E70;" d="M195.239,69.109l-11.693,11.693l-0.025-0.025c-1.114-1.114-1.114-2.92,0-4.033l9.676-9.676
						L195.239,69.109z"/>
				</g>
				<circle style="fill:#808184;" cx="197.779" cy="65.439" r="3.304"/>
				<path style="fill:#A6A8AB;" d="M198.94,66.599c-0.641,0.641-1.68,0.641-2.32,0c-0.641-0.641-0.641-1.68,0-2.32
					c0.641-0.641,1.68-0.641,2.32,0C199.58,64.92,199.58,65.959,198.94,66.599z"/>
			</g>
			
				<line style="fill:none;stroke:#404041;stroke-width:0.5669;stroke-miterlimit:10;" x1="297.003" y1="63.621" x2="322.177" y2="63.621"/>
		</g>
		<g>
			<g>
				<path style="fill:#EC2A32;" d="M316.824,187.813c-16.145,0-29.279-13.134-29.279-29.279c0-16.145,13.135-29.279,29.279-29.279
					c16.144,0,29.278,13.135,29.278,29.279C346.103,174.679,332.969,187.813,316.824,187.813z M316.824,132.246
					c-14.496,0-26.289,11.793-26.289,26.288c0,14.495,11.793,26.288,26.289,26.288c14.495,0,26.288-11.792,26.288-26.288
					C343.112,144.039,331.319,132.246,316.824,132.246z"/>
			</g>
			<rect x="309.966" y="139.895" style="fill:#EC2A32;" width="13.716" height="37.279"/>
			
				<rect x="309.966" y="139.895" transform="matrix(-1.836970e-16 1 -1 -1.836970e-16 475.358 -158.2896)" style="fill:#EC2A32;" width="13.716" height="37.279"/>
		</g>
		
			<path style="fill:none;stroke:#404041;stroke-width:0.5669;stroke-linecap:round;stroke-linejoin:round;stroke-miterlimit:10;" d="
			M132.751,125.01h9.039c0.404,0,0.783-0.198,1.013-0.53l1.876-2.702c0.497-0.716,1.561-0.704,2.042,0.023l1.756,2.656
			c0.228,0.345,0.615,0.553,1.029,0.553h5.588l3.059,9.852c0.214,0.69,1.223,0.579,1.282-0.141l3.161-38.506l3.691,34.102
			c0.068,0.632,0.904,0.808,1.222,0.258l3.214-5.565h7.301c0.47,0,0.911-0.225,1.186-0.606l4.119-5.687
			c0.568-0.784,1.727-0.812,2.331-0.055l4.626,5.796c0.278,0.348,0.699,0.551,1.145,0.551h6.326"/>
		
			<text transform="matrix(0.9 0 0 1 253.8949 319.4557)" style="fill:#EC6F74; font-family:'BuiltTitlingRg-BoldItalic'; font-size:20.4921px;">HOSPITAL</text>
		
			<text transform="matrix(0.9 0 0 1 164.1479 331.7246)" style="fill:#C7181E; font-family:'BuiltTitlingRg-BoldItalic'; font-size:38.4858px; letter-spacing:-1.111;">DANGER</text>
		
			<text transform="matrix(0.9 0 0 1 175.6377 194.4957)" style="fill:#EC6F74; font-family:'BuiltTitlingRg-BoldItalic'; font-size:44.1567px; letter-spacing:-1.111;">MEDICAL</text>
		
			<text transform="matrix(0.9 0 0 1 307.833 354.3066)" style="fill:#C7181E; font-family:'BuiltTitlingRg-BoldItalic'; font-size:67.4292px; letter-spacing:-2.222;">SAFETY</text>
		
			<text transform="matrix(0.9 0 0 1 345.8945 190.1113)" style="fill:#EC6F74; font-family:'BuiltTitlingRg-BoldItalic'; font-size:32.7139px; letter-spacing:-1.111;">DAMAGE</text>
		
			<text transform="matrix(0.9 0 0 1 17.0364 321.561)" style="fill:#C7181E; font-family:'BuiltTitlingRg-BoldItalic'; font-size:22.6772px;">AMBULANCE</text>
		
			<text transform="matrix(0.9 0 0 1 348.7895 160.284)" style="fill:#ECAAAD; font-family:'BuiltTitlingRg-BoldItalic'; font-size:38.1397px; letter-spacing:-1.111;">HEALTHCARE</text>
		
			<text transform="matrix(0.9 0 0 1 211.5984 155.8685)" style="fill:#C7181E; font-family:'BuiltTitlingRg-BoldItalic'; font-size:29.059px; letter-spacing:-1.111;">URGENCY</text>
		
			<text transform="matrix(0.9 0 0 1 17.7764 353.1257)" style="fill:#ECAAAD; font-family:'BuiltTitlingRg-BoldItalic'; font-size:36.2095px; letter-spacing:-1.111;">RECOVERY</text>
		
			<text transform="matrix(0.9 0 0 1 427.4834 190.9513)" style="fill:#C7181E; font-family:'BuiltTitlingRg-BoldItalic'; font-size:24.5598px;">HEALTH</text>
		
			<text transform="matrix(0.9 0 0 1 131.8435 343.3347)" style="fill:#ECAAAD; font-family:'BuiltTitlingRg-BoldItalic'; font-size:22.6772px;">LIFE</text>
		
			<text transform="matrix(0.9 0 0 1 100.3001 321.5615)" style="fill:#EC6F74; font-family:'BuiltTitlingRg-BoldItalic'; font-size:22.6772px;">ACCIDENT</text>
		<g>
			<g>
				<rect x="122.154" y="77.047" style="fill:#EC2A32;" width="8.333" height="29"/>
				<rect x="139.488" y="77.047" style="fill:#EC2A32;" width="8.333" height="29"/>
				
					<rect x="130.154" y="82.214" transform="matrix(6.123234e-17 -1 1 6.123234e-17 42.7736 225.8683)" style="fill:#EC2A32;" width="8.333" height="18.667"/>
			</g>
			<g>
				<path style="fill:#EC2A32;" d="M134.988,116.465c-13.739,0-24.917-11.178-24.917-24.917c0-13.739,11.178-24.918,24.917-24.918
					c13.739,0,24.917,11.178,24.917,24.918C159.905,105.287,148.727,116.465,134.988,116.465z M134.988,69.465
					c-12.176,0-22.082,9.906-22.082,22.083c0,12.177,9.906,22.083,22.082,22.083s22.083-9.906,22.083-22.083
					C157.07,79.371,147.164,69.465,134.988,69.465z"/>
			</g>
		</g>
		<g>
			<path style="fill:#EC2A32;" d="M465.9,127.255h-70.807c-2.07,0-3.748-1.678-3.748-3.748V88.588c0-2.07,1.678-3.748,3.748-3.748
				H465.9c2.07,0,3.748,1.678,3.748,3.748v34.919C469.648,125.577,467.97,127.255,465.9,127.255z"/>
			<path style="fill:none;stroke:#FFFFFF;stroke-width:0.5669;stroke-miterlimit:10;" d="M395.093,125.025
				c-0.837,0-1.518-0.681-1.518-1.518V88.588c0-0.837,0.681-1.518,1.518-1.518H465.9c0.837,0,1.518,0.681,1.518,1.518v34.919
				c0,0.837-0.681,1.518-1.518,1.518H395.093z"/>
			
				<text transform="matrix(0.9 0 0 1 396.274 107.8851)" style="fill:#FFFFFF; font-family:'BuiltTitlingRg-Regular'; font-size:22.6828px;">EMERGENCY</text>
			<g>
				<rect x="416.162" y="113.498" style="fill:#FFFFFF;" width="19.965" height="6.79"/>
				<polygon style="fill:#FFFFFF;" points="444.831,116.893 434.201,110.672 434.201,123.114 				"/>
			</g>
		</g>
		<path style="fill:#D0D2D3;" d="M46.437,394.593c-2.367,3.275-6.94,4.01-10.215,1.644c-3.275-2.367-4.01-6.94-1.644-10.215
			c2.367-3.275,6.94-4.01,10.215-1.644C48.068,386.745,48.804,391.318,46.437,394.593z"/>
		<path style="fill:#BBBDBF;" d="M34.579,386.022c-0.199,0.275-0.368,0.562-0.523,0.853l11.735,8.482
			c0.228-0.239,0.447-0.489,0.646-0.764c0.199-0.275,0.368-0.562,0.523-0.853l-11.735-8.482
			C34.997,385.496,34.778,385.747,34.579,386.022z"/>
		<path style="fill:#E6E7E8;" d="M56.155,394.302c-3.613,1.809-8.008,0.346-9.817-3.266c-1.809-3.613-0.347-8.008,3.266-9.817
			c3.613-1.809,8.008-0.347,9.817,3.266S59.768,392.493,56.155,394.302z"/>
		<path style="fill:#D0D2D3;" d="M49.604,381.219c-0.303,0.152-0.586,0.328-0.858,0.514l6.483,12.947
			c0.312-0.106,0.623-0.227,0.926-0.379c0.303-0.152,0.586-0.328,0.858-0.514l-6.483-12.947
			C50.218,380.947,49.908,381.067,49.604,381.219z"/>
		<path style="fill:#D8DADB;" d="M47.583,369.375c2.183-3.4,6.708-4.387,10.108-2.204c3.4,2.183,4.387,6.708,2.204,10.108
			c-2.183,3.4-6.708,4.387-10.108,2.204C46.387,377.3,45.4,372.775,47.583,369.375z"/>
		<path style="fill:#C3C5C7;" d="M59.895,377.279c0.183-0.285,0.336-0.581,0.475-0.88l-12.185-7.822
			c-0.214,0.251-0.419,0.513-0.603,0.798c-0.183,0.286-0.336,0.581-0.475,0.88l12.185,7.822
			C59.507,377.826,59.712,377.564,59.895,377.279z"/>
		<path style="fill:#D8DADB;" d="M15.732,379.917c2.183-3.4,6.708-4.387,10.108-2.204c3.4,2.183,4.387,6.708,2.204,10.108
			c-2.183,3.4-6.708,4.387-10.108,2.204C14.536,387.842,13.549,383.317,15.732,379.917z"/>
		<path style="fill:#C3C5C7;" d="M28.044,387.821c0.183-0.286,0.336-0.581,0.475-0.881l-12.185-7.822
			c-0.214,0.251-0.419,0.513-0.603,0.798c-0.183,0.286-0.336,0.581-0.475,0.881l12.185,7.822
			C27.656,388.368,27.861,388.106,28.044,387.821z"/>
		<path style="fill:#E6E7E8;" d="M34.437,374.749c0.995-3.916,4.977-6.283,8.892-5.288c3.916,0.995,6.283,4.977,5.288,8.893
			c-0.995,3.916-4.977,6.283-8.893,5.288C35.809,382.646,33.441,378.665,34.437,374.749z"/>
		<path style="fill:#D0D2D3;" d="M48.617,378.354c0.083-0.329,0.135-0.658,0.172-0.986l-14.033-3.567
			c-0.124,0.306-0.236,0.619-0.319,0.948c-0.084,0.329-0.135,0.658-0.172,0.986l14.033,3.567
			C48.421,378.996,48.533,378.682,48.617,378.354z"/>
		<g>
			<path style="fill:#E6E7E8;" d="M452.353,388.332c1.281-2.392,0.372-5.396-2.019-6.677l0,0c-2.391-1.281-5.396-0.372-6.677,2.019
				l-3.768,7.035l8.696,4.658L452.353,388.332z"/>
			<path style="fill:#EC2A32;" d="M439.889,390.709l-3.768,7.035c-1.281,2.392-0.372,5.396,2.019,6.677l0,0
				c2.391,1.281,5.396,0.372,6.677-2.019l3.768-7.035L439.889,390.709z"/>
		</g>
		<g>
			<path style="fill:#E6E7E8;" d="M465.57,399.991c2.324,1.399,5.371,0.642,6.77-1.682v0c1.399-2.324,0.642-5.371-1.682-6.77
				l-6.837-4.116l-5.088,8.452L465.57,399.991z"/>
			<path style="fill:#EC6F74;" d="M463.821,387.423l-6.837-4.116c-2.324-1.399-5.371-0.642-6.77,1.682l0,0
				c-1.399,2.324-0.643,5.371,1.682,6.77l6.837,4.116L463.821,387.423z"/>
		</g>
		<g>
			<path style="fill:#E6E7E8;" d="M432.679,401.894c2.324,1.399,5.371,0.642,6.77-1.682l0,0c1.399-2.324,0.642-5.371-1.682-6.77
				l-6.837-4.116l-5.088,8.452L432.679,401.894z"/>
			<path style="fill:#EC2A32;" d="M430.929,389.326l-6.837-4.116c-2.324-1.399-5.371-0.642-6.77,1.682l0,0
				c-1.399,2.324-0.643,5.371,1.682,6.77l6.837,4.116L430.929,389.326z"/>
		</g>
		<g>
			<path style="fill:#D0D2D3;" d="M105.793,86.454l-20.35,10.472c-1.886,0.97-4.201,0.228-5.171-1.657L58.458,52.877
				c-0.97-1.886-0.228-4.201,1.657-5.171l20.35-10.472c1.886-0.97,4.201-0.228,5.171,1.657l21.813,42.391
				C108.421,83.168,107.679,85.483,105.793,86.454z"/>
			<path style="fill:#EC6F74;" d="M101.943,81.387l-18.385,9.46c-0.947,0.487-2.11,0.115-2.598-0.833L62.437,54.017
				c-0.487-0.947-0.115-2.111,0.833-2.598l18.385-9.46c0.947-0.487,2.111-0.115,2.598,0.833l18.523,35.997
				C103.263,79.736,102.89,80.899,101.943,81.387z"/>
			
				<path style="fill:none;stroke:#404041;stroke-width:0.5669;stroke-linecap:round;stroke-linejoin:round;stroke-miterlimit:10;" d="
				M97.609,88.702l-6.447,3.317c-0.657,0.338-1.47,0.077-1.808-0.579v0c-0.338-0.657-0.077-1.47,0.58-1.808l6.447-3.317
				c0.657-0.338,1.47-0.077,1.808,0.579l0,0C98.527,87.551,98.266,88.364,97.609,88.702z"/>
			
				<text transform="matrix(0.8892 -0.4576 0.4576 0.8892 73.0225 69.3964)" style="fill:#FFFFFF; font-family:'WorkSans-Bold'; font-size:12.889px;">911</text>
			<path style="fill:#FFFFFF;" d="M91.699,71.494l-10.028,5.16c-1.379,0.709-3.087,0.162-3.797-1.217l0,0
				c-0.71-1.379-0.162-3.088,1.217-3.797l10.028-5.16c1.379-0.71,3.087-0.162,3.797,1.217l0,0
				C93.626,69.076,93.078,70.785,91.699,71.494z"/>
			
				<text transform="matrix(0.8892 -0.4576 0.4576 0.8892 80.152 76.0695)" style="fill:#808184; font-family:'WorkSans-Bold'; font-size:5.1958px;">CALL</text>
			
				<path style="fill:none;stroke:#404041;stroke-width:0.5669;stroke-linecap:round;stroke-linejoin:round;stroke-miterlimit:10;" d="
				M77.802,42.079c0.271,0.527,0.064,1.175-0.464,1.446c-0.527,0.271-1.175,0.064-1.447-0.464c-0.271-0.528-0.064-1.175,0.464-1.446
				C76.883,41.344,77.53,41.552,77.802,42.079z"/>
			
				<path style="fill:none;stroke:#404041;stroke-width:0.5669;stroke-linecap:round;stroke-linejoin:round;stroke-miterlimit:10;" d="
				M80.667,40.605c0.271,0.528,0.064,1.175-0.464,1.447c-0.527,0.271-1.175,0.064-1.447-0.464c-0.271-0.527-0.064-1.175,0.464-1.446
				C79.748,39.87,80.396,40.077,80.667,40.605z"/>
		</g>
		
			<text transform="matrix(0.9 0 0 1 162.5732 344.1498)" style="fill:#EC6F74; font-family:'BuiltTitlingRg-BoldItalic'; font-size:13.4466px;">EVACUATION</text>
		
			<text transform="matrix(0.9 0 0 1 24.8877 193.3682)" style="fill:#C7181E; font-family:'BuiltTitlingRg-BoldItalic'; font-size:21.1913px;">CRISIS</text>
	</g>
</g>
<g id="DESIGNED_BY_FREEPIK">
	<g>
		<g id="XMLID_29_">
			<g id="XMLID_48_">
				<path id="XMLID_56_" style="fill:#9EB7C7;" d="M260.104,465.465c-0.432,0.443-0.803,0.931-1.108,1.453l-0.465-0.241
					c-0.067-0.298-0.349-0.503-0.659-0.466c-0.331,0.039-0.568,0.339-0.529,0.67s0.339,0.568,0.67,0.529
					c0.065-0.008,0.127-0.026,0.184-0.052l0.451,0.234c-0.251,0.554-0.433,1.139-0.539,1.744l0.746,0.132
					c0.23-1.306,0.85-2.507,1.792-3.473L260.104,465.465z"/>
				<path id="XMLID_55_" style="fill:#9EB7C7;" d="M265.592,463.163c-0.171,0-0.341,0.006-0.51,0.017l-0.074-0.626
					c0.188-0.149,0.296-0.389,0.266-0.645c-0.046-0.393-0.402-0.674-0.795-0.628s-0.674,0.402-0.628,0.795
					c0.03,0.254,0.189,0.461,0.405,0.564l0.073,0.624c-0.714,0.116-1.403,0.332-2.06,0.646l0.327,0.684
					c0.934-0.447,1.942-0.673,2.995-0.673c0.496,0,0.993,0.053,1.475,0.158l0.161-0.741
					C266.693,463.222,266.142,463.163,265.592,463.163z"/>
				<path id="XMLID_54_" style="fill:#9EB7C7;" d="M272.194,465.711c0.331-0.04,0.566-0.341,0.525-0.672
					c-0.04-0.331-0.341-0.566-0.672-0.526c-0.309,0.038-0.535,0.304-0.53,0.609l-0.416,0.363c-0.418-0.43-0.89-0.813-1.408-1.139
					l-0.404,0.641c1.134,0.715,2.021,1.726,2.563,2.925l0.691-0.313c-0.251-0.554-0.568-1.072-0.942-1.545l0.402-0.351
					C272.065,465.716,272.129,465.719,272.194,465.711z"/>
				<path id="XMLID_53_" style="fill:#9EB7C7;" d="M265.044,473.372c-0.386,0.023-0.775,0.035-1.157,0.035
					c-0.88,0-1.733-0.061-2.478-0.179c-0.39-0.062-0.846-0.155-1.27-0.292c1.046,1.861,3.069,3.125,5.388,3.125
					c2.855,0,5.262-1.916,5.95-4.504c-0.682,0.449-1.505,0.825-2.459,1.123C267.839,473.047,266.464,473.286,265.044,473.372z"/>
				<path id="XMLID_49_" style="fill:#9EB7C7;" d="M265.592,464.68c-3.352,0-6.08,2.666-6.08,5.943c0,0.426,0.046,0.849,0.137,1.261
					c0.674,0.483,2.706,0.89,5.348,0.731c2.879-0.173,5.297-0.957,6.672-2.159c-0.005-0.195-0.021-0.39-0.045-0.582
					C271.244,466.913,268.65,464.68,265.592,464.68z M263.432,471.194c-1.02,0-1.85-0.83-1.85-1.85c0-1.02,0.83-1.85,1.85-1.85
					c1.02,0,1.85,0.83,1.85,1.85C265.282,470.365,264.452,471.194,263.432,471.194z M268.17,470.286c-0.75,0-1.36-0.61-1.36-1.36
					s0.61-1.361,1.36-1.361c0.75,0,1.361,0.61,1.361,1.361S268.92,470.286,268.17,470.286z"/>
			</g>
			<path id="XMLID_46_" style="fill:#9EB7C7;" d="M281.595,466.547c-0.295-0.116-0.806-0.309-1.382-0.237
				c-0.551,0.069-0.844,0.341-0.844,1.007v0.866h2.228v1.717h-2.228v5.455h-1.932v-5.455h-1.34v-1.717h1.34v-0.888
				c0-1.68,0.896-2.783,2.568-2.783c0.642,0,1.157,0.122,1.59,0.308L281.595,466.547z"/>
			<path id="XMLID_44_" style="fill:#9EB7C7;" d="M286.298,469.879c-0.177-0.03-0.358-0.046-0.526-0.046
				c-0.896,0-1.51,0.548-1.51,1.614v3.908h-1.932v-7.172h1.873v0.785c0.451-0.673,1.14-0.977,2.021-0.977
				c0.414,0,0.848,0.128,1.094,0.337L286.298,469.879z"/>
			<path id="XMLID_41_" style="fill:#9EB7C7;" d="M293.965,471.757c0,0.222-0.015,0.489-0.037,0.651h-5.085
				c0.207,1.036,0.933,1.488,1.843,1.488c0.622,0,1.295-0.252,1.813-0.688l1.132,1.243c-0.814,0.748-1.85,1.088-3.057,1.088
				c-2.198,0-3.723-1.495-3.723-3.753c0-2.258,1.48-3.797,3.627-3.797C292.544,467.99,293.958,469.522,293.965,471.757z
				 M288.851,471.091h3.175c-0.177-0.918-0.733-1.436-1.562-1.436C289.554,469.655,289.021,470.203,288.851,471.091z"/>
			<path id="XMLID_38_" style="fill:#9EB7C7;" d="M301.618,471.757c0,0.222-0.015,0.489-0.037,0.651h-5.085
				c0.207,1.036,0.932,1.488,1.843,1.488c0.622,0,1.295-0.252,1.813-0.688l1.132,1.243c-0.814,0.748-1.85,1.088-3.057,1.088
				c-2.198,0-3.723-1.495-3.723-3.753c0-2.258,1.48-3.797,3.627-3.797C300.197,467.99,301.611,469.522,301.618,471.757z
				 M296.504,471.091h3.175c-0.178-0.918-0.733-1.436-1.562-1.436C297.207,469.655,296.674,470.203,296.504,471.091z"/>
			<path id="XMLID_35_" style="fill:#9EB7C7;" d="M309.964,471.764c0,2.154-1.495,3.775-3.471,3.775
				c-0.962,0-1.643-0.378-2.109-0.933v3.708h-1.924v-10.133h1.887v0.792c0.466-0.585,1.155-0.984,2.139-0.984
				C308.469,467.99,309.964,469.61,309.964,471.764z M304.287,471.764c0,1.132,0.747,1.976,1.843,1.976
				c1.14,0,1.85-0.881,1.85-1.976c0-1.095-0.71-1.976-1.85-1.976C305.035,469.788,304.287,470.632,304.287,471.764z"/>
			<path id="XMLID_32_" style="fill:#9EB7C7;" d="M313.068,465.836c0,0.696-0.54,1.229-1.236,1.229
				c-0.696,0-1.229-0.533-1.229-1.229c0-0.696,0.533-1.243,1.229-1.243C312.527,464.592,313.068,465.14,313.068,465.836z
				 M312.809,475.354h-1.932v-7.172h1.932V475.354z"/>
			<path id="XMLID_30_" style="fill:#9EB7C7;" d="M316.032,470.736l2.702-2.554h2.368l-3.479,3.375l3.501,3.797h-2.376l-2.716-2.901
				v2.901H314.1v-10.658h1.932V470.736z"/>
		</g>
		<g>
			<path style="fill:#9EB7C7;" d="M184.412,475.289v-1.055c-0.527,0.718-1.391,1.23-2.387,1.23c-1.846,0-3.149-1.406-3.149-3.706
				c0-2.256,1.289-3.721,3.149-3.721c0.952,0,1.816,0.469,2.387,1.245v-3.765h1.099v9.77H184.412z M184.412,473.37v-3.208
				c-0.395-0.615-1.245-1.143-2.124-1.143c-1.421,0-2.27,1.172-2.27,2.739c0,1.567,0.85,2.724,2.27,2.724
				C183.168,474.483,184.017,473.986,184.412,473.37z"/>
			<path style="fill:#9EB7C7;" d="M186.932,471.744c0-2.051,1.465-3.706,3.486-3.706c2.139,0,3.398,1.67,3.398,3.794v0.279h-5.727
				c0.088,1.333,1.025,2.446,2.549,2.446c0.805,0,1.626-0.322,2.182-0.894l0.527,0.718c-0.703,0.703-1.655,1.084-2.812,1.084
				C188.44,475.465,186.932,473.956,186.932,471.744z M190.403,468.947c-1.509,0-2.256,1.274-2.314,2.358h4.643
				C192.718,470.25,192.015,468.947,190.403,468.947z"/>
			<path style="fill:#9EB7C7;" d="M194.607,474.351l0.571-0.791c0.469,0.542,1.362,1.011,2.329,1.011c1.084,0,1.67-0.513,1.67-1.216
				c0-1.714-4.38-0.659-4.38-3.281c0-1.098,0.952-2.036,2.636-2.036c1.201,0,2.051,0.454,2.622,1.026l-0.513,0.762
				c-0.424-0.513-1.201-0.894-2.109-0.894c-0.967,0-1.567,0.483-1.567,1.113c0,1.552,4.38,0.527,4.38,3.281
				c0,1.187-0.952,2.138-2.783,2.138C196.306,475.465,195.325,475.113,194.607,474.351z"/>
			<path style="fill:#9EB7C7;" d="M201.477,466.471c0-0.41,0.337-0.747,0.732-0.747c0.41,0,0.747,0.337,0.747,0.747
				c0,0.41-0.337,0.732-0.747,0.732C201.814,467.203,201.477,466.881,201.477,466.471z M201.667,475.289v-7.075h1.099v7.075H201.667
				z"/>
			<path style="fill:#9EB7C7;" d="M204.582,477.105l0.556-0.82c0.586,0.703,1.289,0.967,2.3,0.967c1.172,0,2.27-0.571,2.27-2.124
				v-1.011c-0.513,0.718-1.377,1.26-2.373,1.26c-1.845,0-3.149-1.377-3.149-3.662c0-2.27,1.289-3.677,3.149-3.677
				c0.952,0,1.802,0.469,2.373,1.245v-1.069h1.098v6.87c0,2.344-1.641,3.076-3.369,3.076
				C206.237,478.16,205.417,477.926,204.582,477.105z M209.709,473.253v-3.091c-0.381-0.615-1.23-1.143-2.109-1.143
				c-1.421,0-2.27,1.128-2.27,2.695c0,1.553,0.849,2.695,2.27,2.695C208.478,474.41,209.328,473.868,209.709,473.253z"/>
			<path style="fill:#9EB7C7;" d="M217.413,475.289v-4.629c0-1.245-0.63-1.641-1.582-1.641c-0.865,0-1.685,0.527-2.095,1.099v5.17
				h-1.099v-7.075h1.099v1.025c0.498-0.586,1.464-1.201,2.519-1.201c1.48,0,2.256,0.747,2.256,2.285v4.966H217.413z"/>
			<path style="fill:#9EB7C7;" d="M219.932,471.744c0-2.051,1.465-3.706,3.486-3.706c2.139,0,3.398,1.67,3.398,3.794v0.279h-5.727
				c0.088,1.333,1.025,2.446,2.549,2.446c0.806,0,1.626-0.322,2.183-0.894l0.527,0.718c-0.703,0.703-1.655,1.084-2.812,1.084
				C221.441,475.465,219.932,473.956,219.932,471.744z M223.404,468.947c-1.509,0-2.256,1.274-2.314,2.358h4.643
				C225.718,470.25,225.015,468.947,223.404,468.947z"/>
			<path style="fill:#9EB7C7;" d="M233.35,475.289v-1.055c-0.527,0.718-1.392,1.23-2.388,1.23c-1.846,0-3.149-1.406-3.149-3.706
				c0-2.256,1.289-3.721,3.149-3.721c0.952,0,1.817,0.469,2.388,1.245v-3.765h1.098v9.77H233.35z M233.35,473.37v-3.208
				c-0.396-0.615-1.245-1.143-2.124-1.143c-1.421,0-2.27,1.172-2.27,2.739c0,1.567,0.849,2.724,2.27,2.724
				C232.105,474.483,232.954,473.986,233.35,473.37z"/>
			<path style="fill:#9EB7C7;" d="M239.692,475.289v-9.77h1.098v3.765c0.572-0.776,1.421-1.245,2.388-1.245
				c1.845,0,3.149,1.465,3.149,3.721c0,2.299-1.304,3.706-3.149,3.706c-0.996,0-1.86-0.513-2.388-1.23v1.055H239.692z
				 M242.9,474.483c1.436,0,2.285-1.157,2.285-2.724c0-1.568-0.85-2.739-2.285-2.739c-0.864,0-1.728,0.527-2.109,1.143v3.208
				C241.171,473.986,242.036,474.483,242.9,474.483z"/>
			<path style="fill:#9EB7C7;" d="M247.528,477.061c0.161,0.073,0.425,0.117,0.601,0.117c0.483,0,0.805-0.161,1.055-0.747
				l0.469-1.069l-2.959-7.148h1.187l2.358,5.8l2.344-5.8h1.201l-3.545,8.51c-0.425,1.025-1.143,1.421-2.08,1.435
				c-0.234,0-0.601-0.044-0.805-0.103L247.528,477.061z"/>
		</g>
	</g>
</g>
</svg>
